<svg xmlns="http://www.w3.org/2000/svg" xmlns:xlink="http://www.w3.org/1999/xlink" version="1.1" x="0px" y="0px" viewBox="0 0 95 118.75" enable-background="new 0 0 95 95" xml:space="preserve"><g><path d="M47.5,30.824c-9.195,0-16.676,7.48-16.676,16.675c0,9.195,7.481,16.676,16.676,16.676c9.195,0,16.676-7.48,16.676-16.676   C64.176,38.305,56.695,30.824,47.5,30.824z M47.5,62.832c-8.455,0-15.333-6.878-15.333-15.333c0-8.454,6.878-15.331,15.333-15.331   c8.454,0,15.333,6.877,15.333,15.331C62.833,55.954,55.954,62.832,47.5,62.832z"/><path d="M78.808,6.875H16.192c-5.137,0-9.317,4.179-9.317,9.316v62.616c0,5.138,4.18,9.317,9.317,9.317h62.616   c5.138,0,9.317-4.18,9.317-9.317V16.191C88.125,11.054,83.945,6.875,78.808,6.875z M86.782,78.808c0,4.397-3.577,7.974-7.975,7.974   H16.192c-4.397,0-7.974-3.576-7.974-7.974V16.191c0-4.396,3.577-7.975,7.974-7.975h62.616c4.397,0,7.975,3.578,7.975,7.975V78.808z   "/><path d="M71.449,16.61c-3.826,0-6.939,3.112-6.939,6.938c0,3.827,3.113,6.939,6.939,6.939c3.827,0,6.94-3.112,6.94-6.939   C78.39,19.723,75.276,16.61,71.449,16.61z M71.449,29.146c-3.086,0-5.596-2.511-5.596-5.598c0-3.086,2.51-5.597,5.596-5.597   c3.087,0,5.598,2.511,5.598,5.597C77.047,26.636,74.536,29.146,71.449,29.146z"/><path d="M47.5,24.781c-12.527,0-22.719,10.191-22.719,22.718c0,12.527,10.192,22.72,22.719,22.72s22.719-10.192,22.719-22.72   C70.219,34.973,60.027,24.781,47.5,24.781z M47.5,68.875c-11.787,0-21.376-9.59-21.376-21.376S35.713,26.125,47.5,26.125   c11.787,0,21.376,9.588,21.376,21.374S59.287,68.875,47.5,68.875z"/></g></svg>